<svg xmlns="http://www.w3.org/2000/svg" viewBox="0 0 87.66 75.31">
  <path fill="#e0e0e0" d="M78.39,39.11c3.15-1.31,5.5-3.21,7-5.65,1.51-2.46,2.27-5.13,2.27-7.94v-2.52c0-2.66-.49-5.18-1.45-7.5-.96-2.31-2.37-4.38-4.19-6.13-1.82-1.75-4.13-3.15-6.85-4.15-2.75-1.01-6-1.52-9.65-1.52h-11.26v9.34h-6.31v37.49c0,7.89-2.19,14.02-6.51,18.23-.95.93-1.99,1.73-3.1,2.46v4.1h11.88v-27.76h16.98c2.33,0,4.06.65,5.13,1.94,1.03,1.23,1.55,2.83,1.55,4.74v21.08h11.88v-24.45c0-2.22-.62-4-1.9-5.43-1.28-1.44-2.98-2.26-5.2-2.51l-.89-.1v-3.45l.62-.26ZM75.78,26.26c0,3.16-1,5.65-2.96,7.42-1.93,1.74-4.74,2.62-8.35,2.62h-14.25V14.95h14.25c3.63,0,6.45,1,8.39,2.98,1.93,1.97,2.92,4.35,2.92,7.06v1.26ZM38.34,68.78c-.32.24-.66.47-1,.69-.33.22-.66.42-1,.62-3.44,1.98-7.66,2.99-12.63,2.99-3.59,0-6.88-.5-9.78-1.47-2.87-.96-5.36-2.42-7.42-4.31-2.06-1.89-3.67-4.25-4.8-7-1.14-2.77-1.71-6.06-1.71-9.77v-5.94h11.88v5.94c0,3.55,1.02,6.39,3.02,8.43,2.01,2.05,4.83,3.09,8.39,3.09,3.36,0,6.02-1.03,7.93-3.05,1.89-2.01,2.85-4.85,2.85-8.47V11.04h-7.57V0h25.76v11.04h-6.31v39.49c0,7.33-1.99,12.98-5.9,16.79-.54.52-1.11,1.01-1.71,1.46ZM51.22,18.71h20.4v2h-20.4v-2ZM51.22,24.62h20.4v2h-20.4v-2ZM51.22,30.54h20.4v2h-20.4v-2Z"/>
</svg>
